<?xml version="1.0" encoding="UTF-8" standalone="no"?>
<!-- Created with Inkscape (http://www.inkscape.org/) -->
<svg xmlns:dc="http://purl.org/dc/elements/1.1/" xmlns:cc="http://creativecommons.org/ns#" xmlns:rdf="http://www.w3.org/1999/02/22-rdf-syntax-ns#" xmlns:svg="http://www.w3.org/2000/svg" xmlns="http://www.w3.org/2000/svg" xmlns:sodipodi="http://sodipodi.sourceforge.net/DTD/sodipodi-0.dtd" xmlns:inkscape="http://www.inkscape.org/namespaces/inkscape" id="svg2" version="1.1" inkscape:version="0.91 r13725" xml:space="preserve" width="119.38225" height="182.92813" viewBox="0 0 119.38224 182.92813" sodipodi:docname="Logotype du conseil départemental de la Vendée.svg"><metadata id="metadata8"><rdf:RDF><cc:Work rdf:about=""><dc:format>image/svg+xml</dc:format><dc:type rdf:resource="http://purl.org/dc/dcmitype/StillImage"/><dc:title/></cc:Work></rdf:RDF></metadata><defs id="defs6"><clipPath clipPathUnits="userSpaceOnUse" id="clipPath2356"><path d="m 0,0 841.89,0 0,595.276 L 0,595.276 0,0 Z" id="path2358" inkscape:connector-curvature="0"/></clipPath><clipPath clipPathUnits="userSpaceOnUse" id="clipPath2392"><path d="m 0,0 841.89,0 0,595.276 L 0,595.276 0,0 Z" id="path2394" inkscape:connector-curvature="0"/></clipPath><clipPath clipPathUnits="userSpaceOnUse" id="clipPath2408"><path d="m 0,0 841.89,0 0,595.276 L 0,595.276 0,0 Z" id="path2410" inkscape:connector-curvature="0"/></clipPath><clipPath clipPathUnits="userSpaceOnUse" id="clipPath2428"><path d="m 0,0 841.89,0 0,595.276 L 0,595.276 0,0 Z" id="path2430" inkscape:connector-curvature="0"/></clipPath><clipPath clipPathUnits="userSpaceOnUse" id="clipPath2444"><path d="m 0,0 841.89,0 0,595.276 L 0,595.276 0,0 Z" id="path2446" inkscape:connector-curvature="0"/></clipPath><clipPath clipPathUnits="userSpaceOnUse" id="clipPath2472"><path d="m 0,0 841.89,0 0,595.276 L 0,595.276 0,0 Z" id="path2474" inkscape:connector-curvature="0"/></clipPath><clipPath clipPathUnits="userSpaceOnUse" id="clipPath2488"><path d="m 0,0 841.89,0 0,595.276 L 0,595.276 0,0 Z" id="path2490" inkscape:connector-curvature="0"/></clipPath><clipPath clipPathUnits="userSpaceOnUse" id="clipPath2504"><path d="m 0,0 841.89,0 0,595.276 L 0,595.276 0,0 Z" id="path2506" inkscape:connector-curvature="0"/></clipPath><clipPath clipPathUnits="userSpaceOnUse" id="clipPath2564"><path d="m 0,0 841.89,0 0,595.276 L 0,595.276 0,0 Z" id="path2566" inkscape:connector-curvature="0"/></clipPath></defs><sodipodi:namedview pagecolor="#ffffff" bordercolor="#666666" borderopacity="1" objecttolerance="10" gridtolerance="10" guidetolerance="10" inkscape:pageopacity="0" inkscape:pageshadow="2" inkscape:window-width="1366" inkscape:window-height="749" id="namedview4" showgrid="false" fit-margin-top="0" fit-margin-left="0" fit-margin-right="0" fit-margin-bottom="0" inkscape:zoom="1.7941495" inkscape:cx="162.45145" inkscape:cy="174.13307" inkscape:window-x="-8" inkscape:window-y="-8" inkscape:window-maximized="1" inkscape:current-layer="g10"/><g id="g10" inkscape:groupmode="layer" inkscape:label="Carte-cantonale-2015" transform="matrix(1.25,0,0,-1.25,-30.410031,216.14512)"><g id="g2352"><g id="g2354" clip-path="url(#clipPath2356)"><g id="g2360" transform="translate(75.4704,133.5041)"><path d="m 0,0 c -3.489,0.143 -4.764,0.217 -5.483,-1.201 -0.712,-1.426 -0.775,-2.357 0.999,-2.216 0,0 1.499,0.287 4.199,0.075 2.704,-0.216 4.484,-0.427 7.121,0.569 l 1.991,2.349 c 0,0 -1.208,-0.211 -2.706,-0.211 C 4.63,-0.635 3.49,-0.138 0,0" style="fill:#e30613;fill-opacity:1;fill-rule:nonzero;stroke:none" id="path2362" inkscape:connector-curvature="0"/></g><g id="g2364" transform="translate(65.4924,105.4681)"><path d="m 0,0 -0.332,0.312 c -7.08,6.672 -8.063,11.378 -8.063,15.47 0,3.382 1.555,5.067 2.724,6.041 0.449,0.382 0.577,0.487 0.577,0.742 0,0.099 -0.019,0.227 -0.046,0.403 l -0.106,0.57 -0.259,1.951 c -0.008,0.152 -0.012,0.3 -0.012,0.433 0,0.965 0.261,1.555 1.048,2.536 l 1.848,2.106 0.427,0.464 c 1.085,1.154 1.527,1.268 2.907,1.496 0,0 1.203,0.177 2.063,0.297 C 1.901,32.805 0.068,33.34 0.068,33.34 l 3.377,5.414 c 0,0 0.783,0.159 1.057,0.212 0.206,0.322 2.048,2.187 2.068,2.223 l 0,26.259 -17.632,-4.07 0,-96.396 17.632,4.072 0,28.126 C 6.395,-0.594 4.036,2.333 3.538,2.98 2.897,2.436 0,0 0,0" style="fill:#e30613;fill-opacity:1;fill-rule:nonzero;stroke:none" id="path2366" inkscape:connector-curvature="0"/></g><g id="g2368" transform="translate(75.7957,110.4436)"><path d="m 0,0 c -2.87,2.292 -11.586,9.961 -8.299,16.473 0,0 3.557,-0.347 3.21,-4.625 l 2.989,2.209 c 0,0 1.024,1.333 -0.389,2.994 0.965,-0.553 7.628,-4.816 -0.257,-12.032 l 0.212,-0.433 c 0,0 9.434,6.029 6.435,11.499 C 5.841,14.086 9.054,8.688 0,0 M 5.874,19.327 3.131,17.172 c -0.684,0.763 -1.644,1.524 -2.952,2.227 l -2.745,-2.25 c -0.09,0.109 -0.205,0.214 -0.319,0.326 -1.993,1.852 -2.566,1.993 -3.636,1.353 -1.061,-0.645 -2.555,-1.567 -3.623,-2.491 -1.064,-0.929 -4.912,-4.131 1.132,-12.742 0,0 -9.042,9.466 -2.627,14.021 0,0 0.711,0.498 1.351,0.92 0.641,0.431 0.569,1.213 0.429,1.923 -0.152,0.711 -0.152,1.277 -0.285,2.068 -0.144,0.78 0.351,0.928 1.499,1.066 1.128,0.141 3.41,0.212 6.111,0 2.713,-0.221 3.922,-0.491 7.116,0.641 l 2.148,2.625 c 0,0 -1.002,-0.422 -3.71,-0.348 -2.556,0.071 -4.538,0.387 -5.766,0.427 0.402,0 1.228,0.107 1.283,0.857 0.075,0.992 0.075,1.846 0.075,1.846 l 2.42,0.718 1.771,3.063 c 0,0 -2.847,-0.717 -4.34,-0.572 0,0 0.074,1.498 0.361,2.42 0,0 -2.426,-1.146 -3.065,-1.78 l -0.216,-0.571 -1.135,-0.146 -1.99,-3.266 2.704,-0.075 0.212,-2.573 c 0,0 -2.778,0.151 -4.484,-0.348 -1.706,-0.498 -1.917,-0.783 -3.125,-2.348 -1.213,-1.57 -1.427,-2.492 -1.361,-3.704 0.069,-1.203 0.287,-1.988 0.36,-2.49 0.067,-0.494 0.067,-0.782 -0.786,-1.21 -0.851,-0.422 -2.981,-2.208 -3.058,-4.196 -0.074,-1.993 -1.143,-4.983 7.759,-14.383 l 3.198,1.999 c 0,0 3.2,-2.925 4.206,-3.196 l 2.841,2.342 c 0,0 -0.17,0.129 -0.47,0.352 1.338,0.927 15.713,11.291 5.46,19.65" style="fill:#e30613;fill-opacity:1;fill-rule:nonzero;stroke:none" id="path2370" inkscape:connector-curvature="0"/></g><g id="g2372" transform="translate(81.2463,44.8149)"><path d="m 0,0 c -0.912,0 -1.767,0.006 -2.376,0.104 l 0,14.915 c 0.541,0.116 1.432,0.238 2.773,0.238 2.543,0 4.493,-0.666 5.795,-1.976 1.23,-1.24 1.852,-3.018 1.836,-5.286 C 8.028,5.427 7.326,3.424 5.943,2.046 4.559,0.676 2.559,-0.012 0,0 m 0.282,17.466 c -2.287,0 -4.321,-0.263 -5.404,-0.413 l 0,-19.049 c 0.96,-0.123 1.959,-0.24 4.64,-0.24 3.755,0 6.723,0.963 8.581,2.79 1.826,1.828 2.785,4.429 2.785,7.525 0,2.989 -0.928,5.341 -2.764,6.996 -1.721,1.61 -4.288,2.391 -7.838,2.391" style="fill:#000000;fill-opacity:1;fill-rule:nonzero;stroke:none" id="path2374" inkscape:connector-curvature="0"/></g></g></g><g id="g2376" transform="translate(97.4565,51.7224)"><path d="m 0,0 7.415,0 0,2.295 -7.415,0 0,5.796 7.87,0 0,2.324 -10.616,0 0,-19.391 11.038,0 0,2.324 L 0,-6.652 0,0 Z" style="fill:#000000;fill-opacity:1;fill-rule:nonzero;stroke:none" id="path2378" inkscape:connector-curvature="0"/></g><g id="g2380" transform="translate(104.6097,67.277)"><path d="m 0,0 -0.321,0 -3.068,0 -2.869,-3.597 2.318,0 L 0,0 Z" style="fill:#000000;fill-opacity:1;fill-rule:nonzero;stroke:none" id="path2382" inkscape:connector-curvature="0"/></g><g id="g2384" transform="translate(111.5438,45.0702)"><path d="m 0,0 0,6.652 7.412,0 0,2.295 -7.412,0 0,5.797 7.865,0 0,2.323 -10.613,0 0,-19.391 11.038,0 L 8.29,0 0,0 Z" style="fill:#000000;fill-opacity:1;fill-rule:nonzero;stroke:none" id="path2386" inkscape:connector-curvature="0"/></g><g id="g2388"><g id="g2390" clip-path="url(#clipPath2392)"><g id="g2396" transform="translate(39.684,65.138)"><path d="m 0,0 -3.773,-11.026 c -1.083,-3.079 -1.883,-5.666 -2.447,-7.918 -0.63,2.531 -1.431,5.201 -2.276,7.951 L -11.972,0 l -3.384,0 7.339,-22.392 3.338,0 L 3.322,0 0,0 Z" style="fill:#000000;fill-opacity:1;fill-rule:nonzero;stroke:none" id="path2398" inkscape:connector-curvature="0"/></g></g></g><g id="g2400" transform="translate(46.8336,51.7224)"><path d="m 0,0 7.414,0 0,2.295 -7.414,0 0,5.796 7.867,0 0,2.324 -10.618,0 0,-19.391 11.043,0 0,2.324 L 0,-6.652 0,0 Z" style="fill:#000000;fill-opacity:1;fill-rule:nonzero;stroke:none" id="path2402" inkscape:connector-curvature="0"/></g><g id="g2404"><g id="g2406" clip-path="url(#clipPath2408)"><g id="g2412" transform="translate(70.064,62.1372)"><path d="m 0,0 0,-8.161 c 0,-2.641 0.055,-4.947 0.257,-7.439 -0.762,1.674 -1.741,3.45 -3.233,5.859 L -9.119,0 l -2.92,0 0,-19.391 2.575,0 0,8.306 c 0,2.999 -0.027,5.228 -0.153,7.511 0.798,-1.693 1.87,-3.62 3.39,-6.047 l 6.112,-9.77 2.697,0 L 2.582,0 0,0 Z" style="fill:#000000;fill-opacity:1;fill-rule:nonzero;stroke:none" id="path2414" inkscape:connector-curvature="0"/></g></g></g><g id="g2416" transform="translate(27.6098,35.451)"><path d="m 0,0 1.001,0 -1.387,-7.871 3.282,0 -0.169,-0.941 -4.272,0 L 0,0 Z" style="fill:#000000;fill-opacity:1;fill-rule:nonzero;stroke:none" id="path2418" inkscape:connector-curvature="0"/></g><g id="g2420" transform="translate(36.6865,30.7832)"><path d="m 0,0 -2.956,0 -0.556,-3.217 3.331,0 -0.169,-0.927 -4.332,0 1.544,8.812 4.152,0 -0.169,-0.928 -3.138,0 -0.495,-2.825 2.957,0 L 0,0 Z" style="fill:#000000;fill-opacity:1;fill-rule:nonzero;stroke:none" id="path2422" inkscape:connector-curvature="0"/></g><g id="g2424"><g id="g2426" clip-path="url(#clipPath2428)"><g id="g2432" transform="translate(42.6147,35.3206)"><path d="m 0,0 c 0.627,0.118 1.303,0.183 2.003,0.183 1.376,0 2.414,-0.405 3.005,-1.151 0.447,-0.483 0.772,-1.281 0.772,-2.366 0,-1.569 -0.591,-3.217 -1.629,-4.184 -0.941,-0.85 -2.124,-1.229 -3.692,-1.229 -0.712,0 -1.448,0.04 -1.967,0.118 L 0,0 Z M -0.362,-7.78 C 0,-7.832 0.386,-7.845 0.688,-7.845 c 1.291,0 2.232,0.405 2.908,1.164 0.736,0.81 1.11,2.052 1.11,3.307 0,1.53 -0.699,2.668 -2.715,2.668 -0.374,0 -0.833,-0.027 -1.122,-0.091 L -0.362,-7.78 Z" style="fill:#000000;fill-opacity:1;fill-rule:nonzero;stroke:none" id="path2434" inkscape:connector-curvature="0"/></g></g></g><g id="g2436" transform="translate(54.1784,30.7832)"><path d="m 0,0 -2.956,0 -0.556,-3.217 3.331,0 -0.169,-0.927 -4.332,0 1.544,8.812 4.152,0 -0.169,-0.928 -3.138,0 -0.495,-2.825 2.957,0 L 0,0 Z M 0.941,6.681 -0.7,5.138 l -0.881,0 1.231,1.543 1.291,0 z" style="fill:#000000;fill-opacity:1;fill-rule:nonzero;stroke:none" id="path2438" inkscape:connector-curvature="0"/></g><g id="g2440"><g id="g2442" clip-path="url(#clipPath2444)"><g id="g2448" transform="translate(57.306,35.3206)"><path d="m 0,0 c 0.459,0.105 1.098,0.183 1.762,0.183 0.784,0 1.533,-0.21 1.991,-0.681 0.386,-0.378 0.591,-0.888 0.591,-1.581 0,-0.981 -0.446,-1.817 -0.977,-2.288 -0.628,-0.575 -1.545,-0.85 -2.462,-0.85 -0.313,0 -0.579,0.026 -0.833,0.066 l -0.615,-3.531 -0.99,0 L 0,0 Z m 0.229,-4.236 c 0.29,-0.066 0.519,-0.079 0.809,-0.079 1.376,0 2.293,0.915 2.293,2.157 0,1.047 -0.688,1.465 -1.617,1.465 -0.398,0 -0.7,-0.04 -0.881,-0.091 L 0.229,-4.236 Z" style="fill:#000000;fill-opacity:1;fill-rule:nonzero;stroke:none" id="path2450" inkscape:connector-curvature="0"/></g><g id="g2452" transform="translate(63.3667,29.4238)"><path d="m 0,0 -1.291,-2.785 -1.05,0 4.199,8.812 1.183,0 1.122,-8.812 -1.025,0 L 2.811,0 0,0 Z M 2.739,0.863 2.413,3.412 C 2.377,3.871 2.317,4.524 2.281,5.033 l -0.036,0 C 2.027,4.511 1.822,3.962 1.581,3.426 l -1.207,-2.563 2.365,0 z" style="fill:#000000;fill-opacity:1;fill-rule:nonzero;stroke:none" id="path2454" inkscape:connector-curvature="0"/></g><g id="g2456" transform="translate(70.7063,35.3206)"><path d="m 0,0 c 0.495,0.118 1.171,0.183 1.774,0.183 0.808,0 1.508,-0.21 1.943,-0.64 0.374,-0.34 0.603,-0.851 0.603,-1.452 0,-1.282 -0.905,-2.235 -1.931,-2.549 L 2.377,-4.485 c 0.58,-0.209 0.846,-0.863 0.905,-1.765 0.085,-1.229 0.145,-2.079 0.254,-2.432 l -1.038,0 c -0.049,0.184 -0.133,1.112 -0.193,2.131 -0.06,1.216 -0.471,1.713 -1.279,1.713 l -0.893,0 -0.664,-3.844 -1.002,0 L 0,0 Z m 0.29,-4.001 0.893,0 c 1.266,0 2.088,0.902 2.088,1.948 0,0.954 -0.652,1.373 -1.569,1.373 -0.399,0 -0.652,-0.04 -0.845,-0.092 L 0.29,-4.001 Z" style="fill:#000000;fill-opacity:1;fill-rule:nonzero;stroke:none" id="path2458" inkscape:connector-curvature="0"/></g></g></g><g id="g2460" transform="translate(78.7964,34.5096)"><path d="m 0,0 -2.377,0 0.169,0.941 5.768,0 L 3.391,0 l -2.39,0 -1.375,-7.871 -1.002,0 L 0,0 Z" style="fill:#000000;fill-opacity:1;fill-rule:nonzero;stroke:none" id="path2462" inkscape:connector-curvature="0"/></g><g id="g2464" transform="translate(87.0159,30.7832)"><path d="m 0,0 -2.956,0 -0.555,-3.217 3.331,0 -0.17,-0.927 -4.332,0 1.544,8.812 4.152,0 -0.168,-0.928 -3.138,0 -0.495,-2.825 2.956,0 L 0,0 Z" style="fill:#000000;fill-opacity:1;fill-rule:nonzero;stroke:none" id="path2466" inkscape:connector-curvature="0"/></g><g id="g2468"><g id="g2470" clip-path="url(#clipPath2472)"><g id="g2476" transform="translate(95.4286,26.6389)"><path d="m 0,0 0.58,4.76 c 0.109,0.836 0.29,2.131 0.435,2.979 l -0.037,0 C 0.604,6.851 0.145,5.805 -0.289,4.903 l -2.426,-4.851 -0.76,0 -0.603,4.746 c -0.121,1.02 -0.206,2.039 -0.253,2.941 l -0.037,0 C -4.537,6.929 -4.79,5.596 -4.984,4.76 L -6.093,0 l -0.942,0 2.112,8.812 1.28,0 0.639,-5.059 C -2.92,3.007 -2.835,2.21 -2.811,1.543 l 0.036,0 c 0.253,0.667 0.604,1.451 0.953,2.183 l 2.511,5.086 1.315,0 L 0.966,0 0,0 Z" style="fill:#000000;fill-opacity:1;fill-rule:nonzero;stroke:none" id="path2478" inkscape:connector-curvature="0"/></g></g></g><g id="g2480" transform="translate(103.3131,30.7832)"><path d="m 0,0 -2.956,0 -0.555,-3.217 3.33,0 -0.169,-0.927 -4.332,0 1.544,8.812 4.151,0 -0.168,-0.928 -3.138,0 -0.495,-2.825 2.957,0 L 0,0 Z" style="fill:#000000;fill-opacity:1;fill-rule:nonzero;stroke:none" id="path2482" inkscape:connector-curvature="0"/></g><g id="g2484"><g id="g2486" clip-path="url(#clipPath2488)"><g id="g2492" transform="translate(104.9076,26.6389)"><path d="m 0,0 1.545,8.812 1.098,0 1.859,-4.995 C 4.864,2.811 5.045,2.118 5.214,1.359 l 0.024,0.013 c 0.048,0.798 0.132,1.53 0.35,2.759 l 0.82,4.681 0.942,0 L 5.805,0 4.816,0 2.957,4.982 C 2.571,6.066 2.39,6.681 2.208,7.518 L 2.173,7.504 C 2.088,6.681 1.955,5.805 1.751,4.602 L 0.942,0 0,0 Z" style="fill:#000000;fill-opacity:1;fill-rule:nonzero;stroke:none" id="path2494" inkscape:connector-curvature="0"/></g></g></g><g id="g2496" transform="translate(115.9281,34.5096)"><path d="m 0,0 -2.377,0 0.169,0.941 5.768,0 L 3.391,0 1.002,0 l -1.376,-7.871 -1.002,0 L 0,0 Z" style="fill:#000000;fill-opacity:1;fill-rule:nonzero;stroke:none" id="path2498" inkscape:connector-curvature="0"/></g></g></svg>